<svg width="210" height="52" viewBox="0 0 210 52" fill="none" xmlns="http://www.w3.org/2000/svg">
  <path d="M4 4H17V48H4V4Z" fill="#FF6A00"/>
  <path d="M42 4H58L35.5 25.8L59 48H42.3L19.5 26L42 4Z" fill="#FF6A00"/>
  <path d="M30.2 17.3L21.2 26L30.4 34.8H23.8L14.7 26L23.7 17.3H30.2Z" fill="#0D0D0D"/>
  <path d="M72 11H78.8V23.9L90.5 11H99L85.5 25.3L100 42H91.3L80.8 29.8L78.8 31.8V42H72V11Z" fill="#0D0D0D"/>
  <path d="M111.8 11H119.7L131.2 42H124L121.6 35H109.6L107.2 42H100.3L111.8 11ZM111.5 29.3H119.7L115.6 17.1L111.5 29.3Z" fill="#0D0D0D"/>
  <path d="M128.5 11H154V17H144.7V42H137.8V17H128.5V11Z" fill="#0D0D0D"/>
  <path d="M157.4 11H164.3V42H157.4V11Z" fill="#0D0D0D"/>
  <path d="M170.2 11H184.5C191.1 11 195.3 14.8 195.3 20.7C195.3 25 193.2 28 189.6 29.4L197 42H189.2L182.9 30.5H177V42H170.2V11ZM177 16.8V24.9H183.7C186.7 24.9 188.4 23.5 188.4 20.8C188.4 18.2 186.7 16.8 183.7 16.8H177Z" fill="#0D0D0D"/>
  <path d="M200.2 11H207V42H200.2V11Z" fill="#0D0D0D"/>
</svg>
